<?xml version="1.0" encoding="UTF-8"?>
<svg id="Capa_2" data-name="Capa 2" xmlns="http://www.w3.org/2000/svg" viewBox="0 0 2271.45 631.54">
  <defs>
    <style>
      .cls-1 {
        font-family: Brother-1816-Medium, 'Brother 1816';
        font-size: 72.17px;
        font-weight: 500;
      }

      .cls-1, .cls-2 {
        fill: #fff;
      }

      .cls-3 {
        letter-spacing: .72em;
      }

      .cls-2 {
        stroke-width: 0px;
      }

      .cls-4 {
        letter-spacing: .68em;
      }
    </style>
  </defs>
  <g id="Capa_10" data-name="Capa 10">
    <g>
      <path class="cls-2" d="m510.2,252.09c-7.15-5.58-7.86-16.17-1.38-22.51,23.98-23.46,38.86-56.18,38.86-92.39v-7.71c0-52-42.13-104.07-96.03-121.59t.01-.01c-2.33-.78-4.77-1.49-7.28-2.13-4.87-1.28-9.82-2.26-14.83-2.95-11.82-1.8-23.91-2.53-33.48-2.8h-74.55v106.27h84.91c23.05,0,41.76,18.58,41.97,41.59v6.17c0,23.18-18.79,41.97-41.97,41.97h-84.91v81.24h86.91c26.12,0,47.93,20.63,52.57,47.81.61,3.51.92,7.12.92,10.82,0,3.41-.27,6.74-.78,9.99-.04.28-.09.56-.14.83-4.64,27.18-26.45,47.81-52.57,47.81h-86.91v105.55c11.67.55,94.62,3.51,146.38-14.51,14.33-4.98,28.12-11.58,40.16-20.27.15-.11.29-.22.44-.32,6.58-4.98,12.68-10.56,18.19-16.68.16-.17.3-.34.45-.51.79-.91,1.56-1.79,2.29-2.64.24-.28.48-.56.72-.84.09-.11.19-.23.28-.34,5.1-6.17,9.63-12.82,13.52-19.88v-.02c10.2-18.48,16-39.72,16-62.32v-7.72c0-41.39-19.47-78.25-49.75-101.91ZM7.37,0v499.98h259.44V0H7.37Z"/>
      <text class="cls-1" transform="translate(0 608.59)"><tspan class="cls-3" x="0" y="0">MAKEU</tspan><tspan class="cls-4" x="514.3" y="0">P</tspan></text>
      <g>
        <path class="cls-2" d="m1025.52,100.63h-36.77c-107.09,0-193.89,86.81-193.89,193.89v11.57c0,107.08,86.8,193.89,193.89,193.89h36.77c107.08,0,193.89-86.81,193.89-193.89v-11.57c0-107.08-86.81-193.89-193.89-193.89Zm88.25,202.58c0,53.7-46.45,97.4-103.55,97.4h-6.17c-57.1,0-103.55-43.7-103.55-97.4v-5.8c0-53.71,46.45-97.41,103.55-97.41h6.17c57.1,0,103.55,43.7,103.55,97.41v5.8Z"/>
        <path class="cls-2" d="m1485.34,100.63h-36.77c-107.09,0-193.89,86.81-193.89,193.89v11.57c0,107.08,86.8,193.89,193.89,193.89h36.77c107.08,0,193.89-86.81,193.89-193.89v-11.57c0-107.08-86.81-193.89-193.89-193.89Zm88.25,202.58c0,53.7-46.45,97.4-103.55,97.4h-6.17c-57.1,0-103.55-43.7-103.55-97.4v-5.8c0-53.71,46.45-97.41,103.55-97.41h6.17c57.1,0,103.55,43.7,103.55,97.41v5.8Z"/>
        <rect class="cls-2" x="632.49" y="0" width="125.11" height="499.66" rx="25.2" ry="25.2"/>
        <path class="cls-2" d="m2271.45,215.18v259.51c0,13.91-11.27,25.18-25.18,25.18h-73.21c-13.91,0-25.18-11.27-25.18-25.18v-244.44c0-23.34-20.18-42.33-45-42.33h-2.68c-23.33,0-42.58,16.79-44.79,38.21v.03c-.12,1.17-.19,2.36-.21,3.56v244.97c0,13.91-11.27,25.18-25.18,25.18h-73.2c-13.91,0-25.18-11.27-25.18-25.18v-244.44c0-23.34-20.18-42.33-45-42.33h-2.68c-24.81,0-45,18.99-45,42.33v244.44c0,13.91-11.27,25.18-25.18,25.18h-73.2c-13.91,0-25.18-11.27-25.18-25.18V125.92c0-13.91,11.27-25.18,25.18-25.18h78.13c11.19,0,20.26,9.07,20.26,20.26v14.92c22.14-21.68,53.26-35.18,87.66-35.18h7.24c44.27,0,83.09,22.36,104.36,55.7,4.8-7.55,10.51-14.53,16.99-20.81,22.13-21.51,53.11-34.89,87.36-34.89h7.25c67.08,0,121.65,51.34,121.65,114.44Z"/>
      </g>
    </g>
  </g>
</svg>